<svg width="24" height="24" viewBox="0 0 24 24" fill="none" xmlns="http://www.w3.org/2000/svg">
<path d="M16.4989 0C15.2194 0.0884995 13.7239 0.907495 12.8525 1.97399C12.0575 2.94148 11.4035 4.37847 11.6585 5.77497C13.0564 5.81847 14.5009 4.97997 15.3379 3.89548C16.1209 2.88598 16.7134 1.45799 16.4989 0Z" fill="#ACA4AF"/>
<path d="M21.5555 8.05186C20.327 6.51137 18.6005 5.61737 16.97 5.61737C14.8175 5.61737 13.907 6.64786 12.4116 6.64786C10.8696 6.64786 9.69807 5.62037 7.83658 5.62037C6.0081 5.62037 4.06111 6.73786 2.82661 8.64885C1.09112 11.3398 1.38812 16.3993 4.20061 20.7088C5.2071 22.2508 6.55109 23.9848 8.30908 23.9998C9.87357 24.0148 10.3146 22.9963 12.4341 22.9858C14.5535 22.9738 14.9555 24.0133 16.517 23.9968C18.2765 23.9833 19.694 22.0618 20.7005 20.5198C21.422 19.4143 21.6905 18.8578 22.25 17.6098C18.1805 16.0603 17.528 10.2733 21.5555 8.05186Z" fill="#ACA4AF"/>
</svg>
